<?xml version="1.0" encoding="utf-8" standalone="no"?>
<!DOCTYPE svg PUBLIC "-//W3C//DTD SVG 1.1//EN"
  "http://www.w3.org/Graphics/SVG/1.1/DTD/svg11.dtd">
<svg xmlns:xlink="http://www.w3.org/1999/xlink" width="1008pt" height="468pt" viewBox="0 0 1008 468" xmlns="http://www.w3.org/2000/svg" version="1.1">
 <metadata>
  <rdf:RDF xmlns:dc="http://purl.org/dc/elements/1.1/" xmlns:cc="http://creativecommons.org/ns#" xmlns:rdf="http://www.w3.org/1999/02/22-rdf-syntax-ns#">
   <cc:Work>
    <dc:type rdf:resource="http://purl.org/dc/dcmitype/StillImage"/>
    <dc:date>2026-05-28T12:57:38.041713</dc:date>
    <dc:format>image/svg+xml</dc:format>
    <dc:creator>
     <cc:Agent>
      <dc:title>Matplotlib v3.10.9, https://matplotlib.org/</dc:title>
     </cc:Agent>
    </dc:creator>
   </cc:Work>
  </rdf:RDF>
 </metadata>
 <defs>
  <style type="text/css">*{stroke-linejoin: round; stroke-linecap: butt}</style>
 </defs>
 <g id="figure_1">
  <g id="patch_1">
   <path d="M 0 468 
L 1008 468 
L 1008 0 
L 0 0 
z
" style="fill: #f3fafe"/>
  </g>
  <g id="axes_1">
   <g id="patch_2">
    <path d="M 60.48 421.2 
L 977.76 421.2 
L 977.76 18.72 
L 60.48 18.72 
z
" style="fill: #f3fafe"/>
   </g>
   <g id="matplotlib.axis_1">
    <g id="xtick_1">
     <g id="line2d_1">
      <defs>
       <path id="m2c1fb48c34" d="M 0 0 
L 0 3.5 
" style="stroke: #293036; stroke-width: 0.8"/>
      </defs>
      <g>
       <use xlink:href="#m2c1fb48c34" x="102.174545" y="421.2" style="fill: #293036; stroke: #293036; stroke-width: 0.8"/>
      </g>
     </g>
     <g id="text_1">
      <text style="font-size: 16px; font-family: 'Roboto', 'Roboto Flex', 'Helvetica Neue', 'Arial', 'DejaVu Sans', sans-serif; text-anchor: middle; fill: #293036" x="102.174545" y="440.2" transform="rotate(-0 102.174545 440.2)">2020</text>
     </g>
    </g>
    <g id="xtick_2">
     <g id="line2d_2">
      <g>
       <use xlink:href="#m2c1fb48c34" x="268.952727" y="421.2" style="fill: #293036; stroke: #293036; stroke-width: 0.8"/>
      </g>
     </g>
     <g id="text_2">
      <text style="font-size: 16px; font-family: 'Roboto', 'Roboto Flex', 'Helvetica Neue', 'Arial', 'DejaVu Sans', sans-serif; text-anchor: middle; fill: #293036" x="268.952727" y="440.2" transform="rotate(-0 268.952727 440.2)">2021</text>
     </g>
    </g>
    <g id="xtick_3">
     <g id="line2d_3">
      <g>
       <use xlink:href="#m2c1fb48c34" x="435.730909" y="421.2" style="fill: #293036; stroke: #293036; stroke-width: 0.8"/>
      </g>
     </g>
     <g id="text_3">
      <text style="font-size: 16px; font-family: 'Roboto', 'Roboto Flex', 'Helvetica Neue', 'Arial', 'DejaVu Sans', sans-serif; text-anchor: middle; fill: #293036" x="435.730909" y="440.2" transform="rotate(-0 435.730909 440.2)">2022</text>
     </g>
    </g>
    <g id="xtick_4">
     <g id="line2d_4">
      <g>
       <use xlink:href="#m2c1fb48c34" x="602.509091" y="421.2" style="fill: #293036; stroke: #293036; stroke-width: 0.8"/>
      </g>
     </g>
     <g id="text_4">
      <text style="font-size: 16px; font-family: 'Roboto', 'Roboto Flex', 'Helvetica Neue', 'Arial', 'DejaVu Sans', sans-serif; text-anchor: middle; fill: #293036" x="602.509091" y="440.2" transform="rotate(-0 602.509091 440.2)">2023</text>
     </g>
    </g>
    <g id="xtick_5">
     <g id="line2d_5">
      <g>
       <use xlink:href="#m2c1fb48c34" x="769.287273" y="421.2" style="fill: #293036; stroke: #293036; stroke-width: 0.8"/>
      </g>
     </g>
     <g id="text_5">
      <text style="font-size: 16px; font-family: 'Roboto', 'Roboto Flex', 'Helvetica Neue', 'Arial', 'DejaVu Sans', sans-serif; text-anchor: middle; fill: #293036" x="769.287273" y="440.2" transform="rotate(-0 769.287273 440.2)">2024</text>
     </g>
    </g>
    <g id="xtick_6">
     <g id="line2d_6">
      <g>
       <use xlink:href="#m2c1fb48c34" x="936.065455" y="421.2" style="fill: #293036; stroke: #293036; stroke-width: 0.8"/>
      </g>
     </g>
     <g id="text_6">
      <text style="font-size: 16px; font-family: 'Roboto', 'Roboto Flex', 'Helvetica Neue', 'Arial', 'DejaVu Sans', sans-serif; text-anchor: middle; fill: #293036" x="936.065455" y="440.2" transform="rotate(-0 936.065455 440.2)">2025</text>
     </g>
    </g>
   </g>
   <g id="matplotlib.axis_2">
    <g id="ytick_1">
     <g id="line2d_7">
      <path d="M 60.48 421.2 
L 977.76 421.2 
" clip-path="url(#pa28678dfa8)" style="fill: none; stroke: #d3e8f5; stroke-linecap: square"/>
     </g>
     <g id="text_7">
      <text style="font-size: 14px; font-family: 'Roboto', 'Roboto Flex', 'Helvetica Neue', 'Arial', 'DejaVu Sans', sans-serif; text-anchor: end; fill: #293036" x="53.48" y="426.45" transform="rotate(-0 53.48 426.45)">0%</text>
     </g>
    </g>
    <g id="ytick_2">
     <g id="line2d_8">
      <path d="M 60.48 306.205714 
L 977.76 306.205714 
" clip-path="url(#pa28678dfa8)" style="fill: none; stroke: #d3e8f5; stroke-linecap: square"/>
     </g>
     <g id="text_8">
      <text style="font-size: 14px; font-family: 'Roboto', 'Roboto Flex', 'Helvetica Neue', 'Arial', 'DejaVu Sans', sans-serif; text-anchor: end; fill: #293036" x="53.48" y="311.455714" transform="rotate(-0 53.48 311.455714)">20%</text>
     </g>
    </g>
    <g id="ytick_3">
     <g id="line2d_9">
      <path d="M 60.48 191.211429 
L 977.76 191.211429 
" clip-path="url(#pa28678dfa8)" style="fill: none; stroke: #d3e8f5; stroke-linecap: square"/>
     </g>
     <g id="text_9">
      <text style="font-size: 14px; font-family: 'Roboto', 'Roboto Flex', 'Helvetica Neue', 'Arial', 'DejaVu Sans', sans-serif; text-anchor: end; fill: #293036" x="53.48" y="196.461429" transform="rotate(-0 53.48 196.461429)">40%</text>
     </g>
    </g>
    <g id="ytick_4">
     <g id="line2d_10">
      <path d="M 60.48 76.217143 
L 977.76 76.217143 
" clip-path="url(#pa28678dfa8)" style="fill: none; stroke: #d3e8f5; stroke-linecap: square"/>
     </g>
     <g id="text_10">
      <text style="font-size: 14px; font-family: 'Roboto', 'Roboto Flex', 'Helvetica Neue', 'Arial', 'DejaVu Sans', sans-serif; text-anchor: end; fill: #293036" x="53.48" y="81.467143" transform="rotate(-0 53.48 81.467143)">60%</text>
     </g>
    </g>
    <g id="text_11">
     <text style="font-size: 15px; font-family: 'Roboto', 'Roboto Flex', 'Helvetica Neue', 'Arial', 'DejaVu Sans', sans-serif; text-anchor: middle; fill: #293036" x="14.381719" y="219.96" transform="rotate(-90 14.381719 219.96)">Osakaal kogu varast</text>
    </g>
   </g>
   <g id="line2d_11">
    <path d="M 102.174545 388.294945 
L 268.952727 356.814143 
L 435.730909 332.93529 
L 602.509091 298.364671 
L 769.287273 262.058916 
L 936.065455 239.314598 
" clip-path="url(#pa28678dfa8)" style="fill: none; stroke: #00aeea; stroke-width: 4; stroke-linecap: square"/>
    <defs>
     <path id="md4305f3473" d="M 0 5 
C 1.326016 5 2.597899 4.473168 3.535534 3.535534 
C 4.473168 2.597899 5 1.326016 5 0 
C 5 -1.326016 4.473168 -2.597899 3.535534 -3.535534 
C 2.597899 -4.473168 1.326016 -5 0 -5 
C -1.326016 -5 -2.597899 -4.473168 -3.535534 -3.535534 
C -4.473168 -2.597899 -5 -1.326016 -5 0 
C -5 1.326016 -4.473168 2.597899 -3.535534 3.535534 
C -2.597899 4.473168 -1.326016 5 0 5 
z
" style="stroke: #00aeea"/>
    </defs>
    <g clip-path="url(#pa28678dfa8)">
     <use xlink:href="#md4305f3473" x="102.174545" y="388.294945" style="fill: #00aeea; stroke: #00aeea"/>
     <use xlink:href="#md4305f3473" x="268.952727" y="356.814143" style="fill: #00aeea; stroke: #00aeea"/>
     <use xlink:href="#md4305f3473" x="435.730909" y="332.93529" style="fill: #00aeea; stroke: #00aeea"/>
     <use xlink:href="#md4305f3473" x="602.509091" y="298.364671" style="fill: #00aeea; stroke: #00aeea"/>
     <use xlink:href="#md4305f3473" x="769.287273" y="262.058916" style="fill: #00aeea; stroke: #00aeea"/>
     <use xlink:href="#md4305f3473" x="936.065455" y="239.314598" style="fill: #00aeea; stroke: #00aeea"/>
    </g>
   </g>
   <g id="line2d_12">
    <path d="M 102.174545 315.938632 
L 268.952727 233.777714 
L 435.730909 185.414696 
L 602.509091 136.715505 
L 769.287273 96.4789 
L 936.065455 76.721882 
" clip-path="url(#pa28678dfa8)" style="fill: none; stroke: #002f63; stroke-width: 4; stroke-linecap: square"/>
    <defs>
     <path id="m3e188a981b" d="M 0 5 
C 1.326016 5 2.597899 4.473168 3.535534 3.535534 
C 4.473168 2.597899 5 1.326016 5 0 
C 5 -1.326016 4.473168 -2.597899 3.535534 -3.535534 
C 2.597899 -4.473168 1.326016 -5 0 -5 
C -1.326016 -5 -2.597899 -4.473168 -3.535534 -3.535534 
C -4.473168 -2.597899 -5 -1.326016 -5 0 
C -5 1.326016 -4.473168 2.597899 -3.535534 3.535534 
C -2.597899 4.473168 -1.326016 5 0 5 
z
" style="stroke: #002f63"/>
    </defs>
    <g clip-path="url(#pa28678dfa8)">
     <use xlink:href="#m3e188a981b" x="102.174545" y="315.938632" style="fill: #002f63; stroke: #002f63"/>
     <use xlink:href="#m3e188a981b" x="268.952727" y="233.777714" style="fill: #002f63; stroke: #002f63"/>
     <use xlink:href="#m3e188a981b" x="435.730909" y="185.414696" style="fill: #002f63; stroke: #002f63"/>
     <use xlink:href="#m3e188a981b" x="602.509091" y="136.715505" style="fill: #002f63; stroke: #002f63"/>
     <use xlink:href="#m3e188a981b" x="769.287273" y="96.4789" style="fill: #002f63; stroke: #002f63"/>
     <use xlink:href="#m3e188a981b" x="936.065455" y="76.721882" style="fill: #002f63; stroke: #002f63"/>
    </g>
   </g>
   <g id="patch_3">
    <path d="M 60.48 421.2 
L 977.76 421.2 
" style="fill: none; stroke: #6b7074; stroke-width: 0.8; stroke-linejoin: miter; stroke-linecap: square"/>
   </g>
   <g id="text_12">
    <text style="font-weight: 700; font-size: 16px; font-family: 'Roboto', 'Roboto Flex', 'Helvetica Neue', 'Arial', 'DejaVu Sans', sans-serif; text-anchor: middle; fill: #00aeea" x="102.174545" y="373.044945" transform="rotate(-0 102.174545 373.044945)">6%</text>
   </g>
   <g id="text_13">
    <text style="font-weight: 700; font-size: 16px; font-family: 'Roboto', 'Roboto Flex', 'Helvetica Neue', 'Arial', 'DejaVu Sans', sans-serif; text-anchor: middle; fill: #00aeea" x="936.065455" y="224.064598" transform="rotate(-0 936.065455 224.064598)">32%</text>
   </g>
   <g id="text_14">
    <text style="font-weight: 700; font-size: 16px; font-family: 'Roboto', 'Roboto Flex', 'Helvetica Neue', 'Arial', 'DejaVu Sans', sans-serif; text-anchor: middle; fill: #002f63" x="102.174545" y="300.688632" transform="rotate(-0 102.174545 300.688632)">18%</text>
   </g>
   <g id="text_15">
    <text style="font-weight: 700; font-size: 16px; font-family: 'Roboto', 'Roboto Flex', 'Helvetica Neue', 'Arial', 'DejaVu Sans', sans-serif; text-anchor: middle; fill: #002f63" x="936.065455" y="61.471882" transform="rotate(-0 936.065455 61.471882)">60%</text>
   </g>
   <g id="legend_1">
    <g id="line2d_13">
     <path d="M 74.88 39.52 
L 90.88 39.52 
L 106.88 39.52 
" style="fill: none; stroke: #00aeea; stroke-width: 4; stroke-linecap: square"/>
     <g>
      <use xlink:href="#md4305f3473" x="90.88" y="39.52" style="fill: #00aeea; stroke: #00aeea"/>
     </g>
    </g>
    <g id="text_16">
     <text style="font-size: 16px; font-family: 'Roboto', 'Roboto Flex', 'Helvetica Neue', 'Arial', 'DejaVu Sans', sans-serif; text-anchor: start; fill: #293036" x="119.68" y="45.12" transform="rotate(-0 119.68 45.12)">II sammas</text>
    </g>
    <g id="line2d_14">
     <path d="M 74.88 62.77 
L 90.88 62.77 
L 106.88 62.77 
" style="fill: none; stroke: #002f63; stroke-width: 4; stroke-linecap: square"/>
     <g>
      <use xlink:href="#m3e188a981b" x="90.88" y="62.77" style="fill: #002f63; stroke: #002f63"/>
     </g>
    </g>
    <g id="text_17">
     <text style="font-size: 16px; font-family: 'Roboto', 'Roboto Flex', 'Helvetica Neue', 'Arial', 'DejaVu Sans', sans-serif; text-anchor: start; fill: #293036" x="119.68" y="68.37" transform="rotate(-0 119.68 68.37)">III sammas</text>
    </g>
   </g>
  </g>
 </g>
 <defs>
  <clipPath id="pa28678dfa8">
   <rect x="60.48" y="18.72" width="917.28" height="402.48"/>
  </clipPath>
 </defs>
</svg>
