<?xml version="1.0" encoding="utf-8" standalone="no"?>
<!DOCTYPE svg PUBLIC "-//W3C//DTD SVG 1.1//EN"
  "http://www.w3.org/Graphics/SVG/1.1/DTD/svg11.dtd">
<svg xmlns:xlink="http://www.w3.org/1999/xlink" width="1008pt" height="468pt" viewBox="0 0 1008 468" xmlns="http://www.w3.org/2000/svg" version="1.1">
 <metadata>
  <rdf:RDF xmlns:dc="http://purl.org/dc/elements/1.1/" xmlns:cc="http://creativecommons.org/ns#" xmlns:rdf="http://www.w3.org/1999/02/22-rdf-syntax-ns#">
   <cc:Work>
    <dc:type rdf:resource="http://purl.org/dc/dcmitype/StillImage"/>
    <dc:date>2026-05-28T12:57:37.962855</dc:date>
    <dc:format>image/svg+xml</dc:format>
    <dc:creator>
     <cc:Agent>
      <dc:title>Matplotlib v3.10.9, https://matplotlib.org/</dc:title>
     </cc:Agent>
    </dc:creator>
   </cc:Work>
  </rdf:RDF>
 </metadata>
 <defs>
  <style type="text/css">*{stroke-linejoin: round; stroke-linecap: butt}</style>
 </defs>
 <g id="figure_1">
  <g id="patch_1">
   <path d="M 0 468 
L 1008 468 
L 1008 0 
L 0 0 
z
" style="fill: #f3fafe"/>
  </g>
  <g id="axes_1">
   <g id="patch_2">
    <path d="M 516.6 90.48 
C 501.161685 90.48 485.824017 92.971028 471.179228 97.856899 
C 456.534439 102.74277 442.773478 109.959778 430.427694 119.229254 
C 418.08191 128.498731 407.312276 139.699813 398.534638 152.399996 
C 389.757 165.100179 383.085807 179.133869 378.778653 193.959185 
C 374.4715 208.784502 372.584544 224.208141 373.190648 239.634554 
C 373.796752 255.060967 376.888012 270.289013 382.345067 284.730693 
C 387.802121 299.172374 395.553816 312.639388 405.300838 324.611738 
C 415.04786 336.584087 426.66312 346.905666 439.698119 355.177932 
C 452.733118 363.450197 467.017898 369.565287 482.000882 373.287083 
C 496.983867 377.008878 512.469696 378.288851 527.860421 377.077578 
C 543.251145 375.866305 558.346088 372.179579 572.562393 366.159756 
C 586.778697 360.139932 599.930999 351.865502 611.511453 341.655963 
C 623.091907 331.446425 632.949517 319.434898 640.703654 306.085182 
C 648.457791 292.735465 654.007351 278.221622 657.13805 263.104072 
C 660.268748 247.986522 660.939765 232.46238 659.12519 217.131075 
C 657.310615 201.799771 653.034109 186.861205 646.460798 172.892198 
L 516.6 234 
z
" style="fill: #002f63; stroke: #f3fafe; stroke-width: 3; stroke-linejoin: miter"/>
   </g>
   <g id="patch_3">
    <path d="M 646.460814 172.892234 
C 634.866092 148.252151 616.494477 127.413618 593.501905 112.822082 
C 570.509334 98.230545 543.831827 90.48 516.60002 90.48 
L 516.6 234 
z
" style="fill: #00aeea; stroke: #f3fafe; stroke-width: 3; stroke-linejoin: miter"/>
   </g>
   <g id="matplotlib.axis_1"/>
   <g id="matplotlib.axis_2"/>
   <g id="text_1">
    <text style="font-weight: 700; font-size: 16px; font-family: 'Roboto', 'Roboto Flex', 'Helvetica Neue', 'Arial', 'DejaVu Sans', sans-serif; fill: #293036" transform="translate(367.229584 342.347121)">82%</text>
    <text style="font-weight: 700; font-size: 16px; font-family: 'Roboto', 'Roboto Flex', 'Helvetica Neue', 'Arial', 'DejaVu Sans', sans-serif; fill: #293036" transform="translate(280.832084 359.997121)">Müük, turundus,</text>
    <text style="font-weight: 700; font-size: 16px; font-family: 'Roboto', 'Roboto Flex', 'Helvetica Neue', 'Arial', 'DejaVu Sans', sans-serif; fill: #293036" transform="translate(188.037084 377.647121)">emaettevõtte vahendustasud</text>
    <text style="font-weight: 700; font-size: 16px; font-family: 'Roboto', 'Roboto Flex', 'Helvetica Neue', 'Arial', 'DejaVu Sans', sans-serif; fill: #293036" transform="translate(267.207084 395.297121)">ja pankade kasum</text>
    <text style="font-weight: 700; font-size: 16px; font-family: 'Roboto', 'Roboto Flex', 'Helvetica Neue', 'Arial', 'DejaVu Sans', sans-serif; fill: #293036" transform="translate(334.837084 413.112121)">42 mln €</text>
   </g>
   <g id="text_2">
    <text style="font-weight: 700; font-size: 16px; font-family: 'Roboto', 'Roboto Flex', 'Helvetica Neue', 'Arial', 'DejaVu Sans', sans-serif; fill: #293036" transform="translate(635.797966 62.626652)">18%</text>
    <text style="font-weight: 700; font-size: 16px; font-family: 'Roboto', 'Roboto Flex', 'Helvetica Neue', 'Arial', 'DejaVu Sans', sans-serif; fill: #293036" transform="translate(635.797966 80.276652)">Fondi tegelik haldamine</text>
    <text style="font-weight: 700; font-size: 16px; font-family: 'Roboto', 'Roboto Flex', 'Helvetica Neue', 'Arial', 'DejaVu Sans', sans-serif; fill: #293036" transform="translate(635.797966 98.754152)">(investeerimistiim, IT,</text>
    <text style="font-weight: 700; font-size: 16px; font-family: 'Roboto', 'Roboto Flex', 'Helvetica Neue', 'Arial', 'DejaVu Sans', sans-serif; fill: #293036" transform="translate(635.797966 117.459152)">depootasud)</text>
    <text style="font-weight: 700; font-size: 16px; font-family: 'Roboto', 'Roboto Flex', 'Helvetica Neue', 'Arial', 'DejaVu Sans', sans-serif; fill: #293036" transform="translate(635.797966 135.414152)">9 mln €</text>
   </g>
  </g>
 </g>
</svg>
